<svg version="1.1" xmlns="http://www.w3.org/2000/svg" viewBox="0 0 128 128">
  <path fill="#335163" d="M79.5,122.5h-67v-87c0-9.9,8.1-18,18-18h49c9.9,0,18,8.1,18,18v69C97.5,114.4,89.4,122.5,79.5,122.5z"/>
  <path fill="#8dc7f0" d="M94.5,112h-67V22c0-9.9,8.1-18,18-18h49c9.9,0,18,8.1,18,18v72C112.5,103.9,104.4,112,94.5,112z"/>
  <path fill="#fdfdfe" d="M85,43c0,1.8-0.3,3.7-0.7,5.4c-0.4,1.5-1.1,2.9-2,4.3c-0.8,1.2-1.7,2.4-2.7,3.4c-1,1-2,2-2.9,3l-0.2,0.1
	  c-0.9,0.8-1.7,1.6-2.3,2.3c-0.8,0.8-1.4,1.7-2,2.5c-0.6,1-1.1,1.9-1.3,3.1c-0.4,1.2-0.5,2.5-0.5,3.8v0.3c-0.1,2.5-2.6,4.5-5.4,4.4
	  c-2.7-0.1-4.8-2-4.9-4.4v-0.3c0-2.1,0.3-4.2,0.8-6.2c0.5-1.8,1.3-3.6,2.4-5.2c0.9-1.4,2-2.7,3.2-3.9c0.8-0.8,1.7-1.7,2.7-2.6
	  c0.8-0.9,1.7-1.7,2.6-2.7c0.6-0.6,1.2-1.3,1.6-2.1c0.4-0.7,0.7-1.4,1-2.2c0.3-1,0.4-1.9,0.4-3c0-1.1-0.3-2.4-0.7-3.4
	  c-0.4-1-1.2-2-2-2.8s-2-1.4-3.1-1.8c-1.2-0.4-2.4-0.7-3.7-0.6c-1.2,0-2.6,0.2-3.7,0.6C59,35.7,57,37.5,56,39.6
	  c-0.5,1-0.7,2.2-0.7,3.3V43c0.1,2.5-2,4.7-4.9,4.8c-2.9,0.1-5.3-1.8-5.4-4.4c0-0.2,0-0.3,0-0.4v-0.1c0-2.4,0.5-4.7,1.6-7
	  c2-4.3,5.9-7.7,10.7-9.5c2.5-1,5.2-1.4,7.8-1.4s5.3,0.4,7.8,1.4c4.8,1.8,8.6,5.2,10.6,9.5C84.5,38.2,85,40.6,85,43L85,43z
	  M71.2,86.8c0.7,1.5,0.7,3.1,0,4.6c-0.7,1.4-2,2.5-3.6,3.1l0,0c-0.8,0.3-1.7,0.4-2.5,0.4c-2.8,0-5.2-1.4-6.2-3.7
	  c-1.1-2.2-0.5-4.8,1.4-6.5c0.6-0.5,1.3-1,2.1-1.2c0.8-0.3,1.7-0.4,2.7-0.4c0.9,0,1.7,0.2,2.5,0.4l0,0c0.8,0.3,1.5,0.7,2.1,1.2
	  C70.4,85.4,70.9,86.1,71.2,86.8L71.2,86.8z"/>
</svg>
