<svg version="1.1" xmlns="http://www.w3.org/2000/svg" viewBox="0 0 128 128">
<path fill="#8dc7f0" stroke="#335163" stroke-width="8" stroke-linejoin="round" d="M106,118H22V10h60l24,24V118z"/>
<path fill="#335163" d="M65.1,102.9c-4.2,0-7.8-1.7-10.3-4.8c-2.3-2.9-3.3-6.8-2.7-10.6L55,69.3l-0.7,0.3c-3.3,1.7-7.4,0.4-9.1-2.9
	c-1.7-3.3-0.4-7.4,2.9-9.1l12.4-6.4c2.3-1.2,5-1,7,0.5c2.1,1.5,3.1,4,2.7,6.5l-4.9,31.1c1-0.1,3.5-0.7,8.2-4c3-2.1,7.2-1.4,9.4,1.7
	c2.1,3,1.4,7.2-1.7,9.4c-5.9,4.1-10.9,6.2-15.4,6.4C65.7,102.9,65.4,102.9,65.1,102.9z"/>
<circle fill="#335163" cx="66.3" cy="38.2" r="7.5"/>
</svg>
