<svg version="1.1" xmlns="http://www.w3.org/2000/svg" viewBox="0 0 128 128">
  <path fill="#335163" d="M100,124H16V16h60l24,24V124z"/>
  <path fill="#8dc7f0" d="M112,112H28V4h60l24,24V112z"/>
  <path fill="#fdfdfe" d="M71.1,96.9c-4.2,0-7.8-1.7-10.3-4.8c-2.3-2.9-3.3-6.8-2.7-10.6L61,63.3l-0.7,0.3c-3.3,1.7-7.4,0.4-9.1-2.9
			c-1.7-3.3-0.4-7.4,2.9-9.1l12.4-6.4c2.3-1.2,5-1,7,0.5c2.1,1.5,3.1,4,2.7,6.5l-4.9,31.1c1-0.1,3.5-0.7,8.2-4
			c3-2.1,7.2-1.4,9.4,1.7c2.1,3,1.4,7.2-1.7,9.4c-5.9,4.1-10.9,6.2-15.4,6.4C71.7,96.9,71.4,96.9,71.1,96.9z"/>
  <circle fill="#fdfdfe" cx="72.3" cy="32.2" r="7.5"/>
</svg>
