<svg version="1.1" xmlns="http://www.w3.org/2000/svg" viewBox="0 0 128 128">
  <rect x="10" y="10" width="108" height="15" fill="#00384e"/>
  <rect x="60" y="30" width="58" height="12" fill="#72c6ef"/>
  <rect x="10" y="30" width="45" height="12" fill="#808080"/>
  <path d="M118,48v12h-5.8c-5.2-2.6-11-4-17.2-4s-12,1.4-17.2,4H40V48H118z" fill="#808080"/>
  <rect x="10" y="48" width="25" height="12" fill="#72c6ef"/>
  <path d="M65,65v5.1c-1.8,2.1-3.3,4.5-4.6,6.9H10V65H65z" fill="#72c6ef"/>
  <path d="M58.2,82c-1.3,3.8-2.1,7.8-2.2,12h-6V82H58.2z" fill="#72c6ef"/>
  <rect x="10" y="82" width="35" height="12" fill="#72c6ef"/>
  <path d="M59.4,111H10V99h46.2C56.6,103.2,57.7,107.3,59.4,111z" fill="#808080"/>
  <circle cx="95" cy="95" r="30" fill="#98C800"/>
  <polygon points="112.1,95 95,82.1 95,90.7 77.9,90.7 77.9,99.3 95,99.3 95,107.9" fill="#ffffff"/>
</svg>
