<svg version="1.1" xmlns="http://www.w3.org/2000/svg" x="0px" y="0px" viewBox="0 0 512 512">
  <circle cx="376" cy="400" r="112" fill="#98c800"/>
  <polygon points="440,400 376,352 376,384 312,384 312,416 376,416 376,448" fill="#ffffff"/>
  <path d="M256.4,480H56V32h192v128h128v96c11,0,21.7,1.4,32,3.7V137.4L270.6,0H24v512h261.7
	     C274.4,502.9,264.5,492.1,256.4,480z M280,54.6l73.4,73.4H280V54.6z" fill="#00384e"/>
  <path d="M232,400c0-68.4,48-125.7,112-140.3V160h-96V64H88v384h152.4C235.1,433,232,416.8,232,400z" fill="#72c6ef"/>
  <g fill="#00384d">
    <rect x="136" y="240" width="160" height="32"/>
    <path d="M269,304H136v32h111.2C253,324.3,260.4,313.6,269,304z"/>
    <path d="M136,368v32h96c0-11,1.4-21.7,3.7-32H136z"/>
  </g>
</svg>
