<svg version="1.1" xmlns="http://www.w3.org/2000/svg" viewBox="0 0 512 512">
<path fill="#ECEDEF" d="M106.3,8c-9.4,0-17.1,7.7-17.1,17.1v461.8c0,9.4,7.7,17.1,17.1,17.1h376.3c9.4,0,17.1-7.7,17.1-17.1V85
	l-77-77C422.7,8,106.3,8,106.3,8z"/>
<path fill="#D9DCDF" d="M439.8,85h59.9l-77-77v59.9C422.7,77.3,430.4,85,439.8,85z"/>
<path fill="#C6CACF" d="M397.1,196.1H89.2V42.2h307.8c4.7,0,8.6,3.8,8.6,8.6v136.8C405.6,192.3,401.8,196.1,397.1,196.1z"/>
<polygon fill="#FF8C78" points="388.5,179 12.3,179 80.7,110.6 12.3,42.2 388.5,42.2 "/>
<path d="M499.7,426.5c4.4,0,8-3.6,8-8V85c0-2.1-0.9-4.2-2.3-5.7l-77-77c-1.5-1.5-3.6-2.3-5.7-2.3H106.3C92.5,0,81.2,11.3,81.2,25.1
	v9.1H12.3c-7,0-10.6,8.7-5.7,13.7l62.7,62.7L6.6,173.4c-4.9,4.9-1.3,13.7,5.7,13.7h68.9v299.8c0,13.9,11.3,25.1,25.1,25.1h376.3
	c13.9,0,25.1-11.3,25.1-25.1v-34.2c0-4.4-3.6-8-8-8s-8,3.6-8,8v34.2c0,5-4.1,9.1-9.1,9.1H106.3c-5,0-9.1-4.1-9.1-9.1V187.1h51.8
	c4.4,0,8-3.6,8-8s-3.6-8-8-8H31.6l54.7-54.7c3.1-3.1,3.1-8.2,0-11.3L31.6,50.2h348.9V171H183.3c-4.4,0-8,3.6-8,8s3.6,8,8,8h205.2
	c4.4,0,8-3.6,8-8V42.2c0-4.4-3.6-8-8-8H97.2v-9.1c0-5,4.1-9.1,9.1-9.1h308.4v51.8c0,13.9,11.3,25.1,25.1,25.1h51.8v325.5
	C491.7,422.9,495.2,426.5,499.7,426.5z M439.8,77c-5,0-9.1-4.1-9.1-9.1V27.4L480.3,77H439.8z"/>
<path d="M199.9,110.6V85c0-4.4-3.6-8-8-8h-34.2c-4.4,0-8,3.6-8,8v51.3c0,4.4,3.6,8,8,8c4.4,0,8-3.6,8-8v-17.7c0.2,0,0.4,0,0.5,0
	h25.7C196.3,118.6,199.9,115.1,199.9,110.6z M183.8,102.6h-17.6c-0.2,0-0.4,0-0.5,0V93h18.2L183.8,102.6L183.8,102.6z"/>
<path d="M225.5,136.3v-24.8l19.5,29.3c2.1,3.1,6.1,4.4,9.6,3c3.1-1.2,5.1-4.2,5.1-7.5V85c0-4.4-3.6-8-8-8c-4.4,0-8,3.6-8,8v24.8
	l-19.5-29.3c-2-3-5.9-4.3-9.3-3.1c-3.2,1.1-5.4,4.2-5.4,7.6v51.3c0,4.4,3.6,8,8,8C221.9,144.3,225.5,140.7,225.5,136.3z"/>
<path d="M311.6,93c4.4,0,8-3.6,8-8c0-4.4-3.6-8-8-8h-34.2c-4.4,0-8,3.6-8,8v51.3c0,4.4,3.6,8,8,8h34.2c4.4,0,8-3.6,8-8v-25.7
	c0-4.4-3.6-8-8-8H303c-4.4,0-8,3.6-8,8c0,4.4,3.6,8,8,8h0.5v9.6h-18.2V93H311.6z"/>
<polyline fill="none" stroke="#FF8C78" stroke-width="17" stroke-linecap="round" stroke-linejoin="round" stroke-miterlimit="10" points="
	319.2,235.5 348.7,257.5 310.7,269.5 348.7,284.5 320.2,300.5 340.2,319.5 357.2,335.5 321.2,342.5 310.7,361.5 301.1,374.5
	316.2,374.5 342.2,379.5 357.2,399.5 370.6,424.5 342.2,435.5 325.2,451.5 "/>
<polyline fill="none" stroke="#55BEFF" stroke-width="17" stroke-linecap="round" stroke-linejoin="round" stroke-miterlimit="10" points="
	235.8,453.5 266.3,437.5 246.8,417.5 230.8,395.5 211.8,389.5 211.8,371.5 231.8,366.5 252.8,366.5 211.8,350 249.8,341.5
	224.8,313.5 211.8,288.5 202.8,263.5 225.8,233.5 "/>
<path fill="none" stroke="#000000" stroke-width="17" stroke-miterlimit="10" d="M414.7,465H173.6c-4.4,0-8-3.6-8-8V230
	c0-4.4,3.6-8,8-8h241.1c4.4,0,8,3.6,8,8v227C422.7,461.4,419.1,465,414.7,465z"/>
</svg>
