<svg xmlns="http://www.w3.org/2000/svg" viewBox="0 0 64 64" stroke-width="3">
<defs>
  <pattern id="checkerboard" patternUnits="userSpaceOnUse" width="20" height="20">
    <rect width="10" height="10" fill="#d9eeff"/>
    <rect x="10" y="0" width="10" height="10" fill="#9bcbf2"/>
    <rect x="0" y="10" width="10" height="10" fill="#9bcbf2"/>
    <rect x="10" y="10" width="10" height="10" fill="#d9eeff"/>
  </pattern>
</defs>
<polygon points="58,8 44,28 58,48 6,48 6,24 20,8" fill="url(#checkerboard)" stroke="#5f8db3"/>
<g stroke="#5f8db3" fill="#e3f1fc">
  <rect x="54" y="4" width="8" height="8"/>
  <rect x="40" y="24" width="8" height="8"/>
  <rect x="54" y="44" width="8" height="8"/>
  <rect x="2" y="44" width="8" height="8"/>
  <rect x="2" y="24" width="8" height="8"/>
  <rect x="16" y="4" width="8" height="8"/>
</g>
<g stroke-width="1.5">
  <path d="M29,49L26,58L35,55" fill="#75716b" stroke="#a39a89" stroke-linecap="round"/>
  <path d="M35,55L59,31l-6,-6l-24,24" fill="#fcd48d" stroke="#ab9478" stroke-linejoin="round"/>
  <path d="M60,30l-6,-6l3,-3l6,6Z" fill="#c4c1bd" stroke="#87837c" stroke-linejoin="round"/>
</g>
</svg>
