<svg version="1.1" xmlns="http://www.w3.org/2000/svg" viewBox="0 0 128 128">
  <path fill="#8dc7f0" stroke="#335163" stroke-width="10" stroke-miterlimit="10" d="M109,57.6c0,3.6-2.9,6.4-6.4,6.4
	  c-2,0-3.8-0.9-5.1-2.4l-0.3-0.4c-4.9-7.3-12-12.8-20.4-15.6c-2.1-0.6-4.3-0.9-6.4-1v6.5c0,2.4-1.4,4.5-3.5,5.6
	  c-2.2,1.1-4.8,0.9-6.8-0.6L34.4,36.9c-2.8-2.1-3.4-6.2-1.3-9c0.4-0.5,0.8-0.9,1.3-1.3L60.1,7.4c2-1.5,4.6-1.7,6.8-0.6
	  c2.1,1,3.5,3.2,3.5,5.6V19C84.2,19,108.4,38.9,109,57.6z M19,70.4c0-3.6,2.9-6.4,6.4-6.4c2,0,3.8,0.9,5.1,2.4l0.3,0.4
	  c4.9,7.3,12,12.8,20.4,15.6c2.1,0.6,4.3,0.9,6.4,1v-6.5c0-2.4,1.4-4.5,3.5-5.6c2.2-1.1,4.8-0.9,6.8,0.6l25.7,19.2
	  c2.8,2.1,3.4,6.2,1.3,9c-0.4,0.5-0.8,0.9-1.3,1.3l-25.7,19.2c-2,1.5-4.6,1.7-6.8,0.6c-2.1-1.1-3.5-3.2-3.5-5.6V109
	  C43.8,109,19.6,89.1,19,70.4z"/>
</svg>
